<?xml version="1.0" encoding="utf-8"?>
<!-- Generator: Adobe Illustrator 23.0.2, SVG Export Plug-In . SVG Version: 6.00 Build 0)  -->
<svg version="1.1" id="Layer_1" xmlns="http://www.w3.org/2000/svg" xmlns:xlink="http://www.w3.org/1999/xlink" x="0px" y="0px"
	 viewBox="0 0 143.6 97.4" style="enable-background:new 0 0 143.6 97.4;" xml:space="preserve">
<style type="text/css">
	.st0{fill:none;stroke:#DDDEDE;stroke-width:1.474;stroke-miterlimit:10;}
	.st1{fill:#54565B;}
	.st2{fill:#54565B;stroke:#DDDEDE;stroke-width:0.3685;stroke-miterlimit:10;}
	.st3{fill:#1995AD;stroke:#DDDEDE;stroke-width:0.3685;stroke-miterlimit:10;}
	.st4{fill:#DDDEDE;}
	.st5{font-family:'Roboto-Regular';}
	.st6{font-size:8.8438px;}
</style>
<g id="Layer_3">
</g>
<g id="computer">
	<path class="st0" d="M81.3,75c-0.5,0-0.9,0-1.3,0c-9.4,0-18.8,0-28.2,0c-0.8,0-1.5,0-2.2-0.2c-3.8-0.8-6.6-4.4-7-8.3
		c0-0.6,0-1.1,0-1.6c0-18,0-35.9,0-53.9c0-2.5,0.5-4.9,2.1-6.9c1.8-2.2,4.1-3.3,7.1-3.3c28.3,0,54.8,0,82,0c1,0,2,0.1,2.9,0.4
		c3.2,1,5.8,4.5,6.1,8.1c0.1,0.6,0,1.2,0,1.8c0,17.9,0,35.9,0,53.8c0,2.5-0.5,4.9-2.1,6.8c-1.4,1.8-3.3,3.2-5.7,3.3
		c-0.6,0-1.2,0-1.7,0c-9.3,0-18.7,0-28,0c-0.4,0-0.7,0-1.2,0c0,1.5,0.5,2.9,0.9,4.2c1.1,3.2,2.8,6.2,4.9,8.9c1,1.2,1.9,2.3,3.2,3.4
		c0.3,0.3,0.7,0.4,1.1,0.4c1.4,0,0.2,0,1.6,0c1.7,0,2.7,0.8,2.7,2.4c0,1.3-1.2,2.4-2.7,2.4c-12.7,0-22.8,0-35.5,0c-4.4,0-7.6,0-12,0
		c-1.6,0-2.8-1.1-2.8-2.4c0-1.5,0.9-2.3,2.7-2.4c1.4,0,2.7,0,4.1,0c0.3,0,0.7,0,0.9-0.2c1.4-1.2,3.9-5,3.9-5s2.5-5,2.7-6.3
		C80.5,78.6,81,76.9,81.3,75z"/>
	<path class="st1" d="M81.3,75.2c-0.5,0-0.9,0-1.3,0c-9.4,0-18.8,0-28.2,0c-0.8,0-1.5,0-2.2-0.2c-3.8-0.8-6.6-4.4-7-8.3
		c0-0.6,0-1.1,0-1.6c0-18,0-35.9,0-53.9c0-2.5,0.5-4.9,2.1-6.9C46.4,2,48.8,1,51.7,1c28.3,0,54.8,0,82,0c1,0,2,0.1,2.9,0.4
		c3.2,1,5.8,4.5,6.1,8.1c0.1,0.6,0,1.2,0,1.8c0,17.9,0,35.9,0,53.8c0,2.5-0.5,4.9-2.1,6.8c-1.4,1.8-3.3,3.2-5.7,3.3
		c-0.6,0-1.2,0-1.7,0c-9.3,0-18.7,0-28,0c-0.4,0-0.7,0-1.2,0c0,1.5,0.5,2.9,0.9,4.2c1.1,3.2,2.8,6.2,4.9,8.9c1,1.2,1.9,2.3,3.2,3.4
		c0.3,0.3,0.7,0.4,1.1,0.4c1.4,0,0.2,0,1.6,0c1.7,0,2.7,0.8,2.7,2.4c0,1.3-1.2,2.4-2.7,2.4c-12.7,0-22.8,0-35.5,0c-4.4,0-7.6,0-12,0
		c-1.6,0-2.8-1.1-2.8-2.4c0-1.5,0.9-2.3,2.7-2.4c1.4,0,2.7,0,4.1,0c0.3,0,0.7,0,0.9-0.2c1.4-1.2,3.9-5,3.9-5s2.5-5,2.7-6.3
		C80.5,78.8,81,77.1,81.3,75.2z M139.8,58.1c0-0.2,0-0.3,0-0.4c0-16,0-32,0-48c0-3-1.9-5.3-5.1-5.3c-28,0.1-55.9,0-83.9,0
		c-0.3,0-0.7,0-1,0c-1.2,0.1-2.3,0.5-3,1.6c-0.8,1.2-1.2,2.5-1.2,4c0,15.7,0,31.5,0,47.2c0,0.3,0,0.6,0,0.9
		C77.1,58.1,108.4,58.1,139.8,58.1z M139.9,61.2c-31.5,0-62.8,0-94.2,0c0,2.2-0.1,4.2,0,6.3c0.1,2.9,2,5.6,4.7,5.6
		c28.2-0.1,56.5-0.1,84.7,0c2.4,0,4.3-2.1,4.6-4.8C140,65.9,139.8,63.6,139.9,61.2z M110.6,93.4c-5.2-5.1-8.4-10.9-9.4-17.3
		c-5.8,0-11.4,0-17.1,0c-1.1,6.6-4.2,12.2-9.4,17.3C86.7,93.4,98.5,93.4,110.6,93.4z"/>
	<path class="st2" d="M92.8,68c-1.3,0-2.3-1-2.2-2.3c0.1-1.6,0.8-2.4,2.2-2.4c1.4,0,2.1,0.9,2.2,2.4C95,67.1,94,68,92.8,68z"/>
</g>
<g id="psd">
	<polygon class="st1" points="140.7,59.7 44.9,59.7 44.9,4.5 45.7,3.7 139.3,3.7 140.7,4.9 	"/>
	<polygon class="st3" points="41.4,85.8 27.5,90.5 13.6,95.2 7,75.5 0.3,55.9 14.2,51.2 28.1,46.5 34.8,66.1 	"/>
	<text transform="matrix(0.9472 -0.3207 0.3207 0.9472 12.1422 68.7826)" class="st4 st5 st6">PSD</text>
	<polygon class="st3" points="106.1,49.1 93.1,49.1 80,49.1 80,30.6 80,12.2 93.1,12.2 106.1,12.2 106.1,30.6 	"/>
	<text transform="matrix(1 0 0 1 84.4469 25.4394)" class="st1 st5 st6">PSD</text>
	<path class="st1" d="M33.7,14.6c0,0.4-0.1,0.7-0.3,1s-0.6,0.4-1,0.5s-0.7-0.1-1-0.4s-0.4-0.6-0.5-1c0-0.4,0.1-0.7,0.3-1
		s0.6-0.4,0.9-0.5c0.4,0,0.7,0.1,1,0.4C33.5,13.9,33.7,14.2,33.7,14.6z"/>
	<path class="st1" d="M26.1,22.1c0,0.4-0.1,0.7-0.3,1c-0.2,0.3-0.6,0.4-1,0.5c-0.4,0-0.7-0.1-1-0.3s-0.4-0.6-0.5-1s0.1-0.7,0.4-1
		c0.2-0.3,0.6-0.4,1-0.5c0.4,0,0.7,0.1,1,0.3C25.9,21.4,26,21.7,26.1,22.1z"/>
	<path class="st1" d="M19.3,32.4c0,0.4-0.1,0.7-0.4,1c-0.2,0.3-0.6,0.4-1,0.5c-0.4,0-0.7-0.1-1-0.3s-0.4-0.6-0.5-1s0.1-0.7,0.4-1
		c0.2-0.3,0.6-0.4,1-0.5c0.4,0,0.7,0.1,1,0.3C19.1,31.6,19.3,32,19.3,32.4z"/>
	<path class="st1" d="M14.5,43.9c0,0.4-0.1,0.7-0.4,1s-0.6,0.4-1,0.5c-0.4,0-0.7-0.1-1-0.3s-0.4-0.6-0.5-1s0.1-0.7,0.4-1
		c0.2-0.3,0.6-0.4,1-0.5c0.4,0,0.7,0.1,1,0.3C14.3,43.2,14.5,43.5,14.5,43.9z"/>
</g>
</svg>
