<?xml version="1.0" encoding="utf-8"?>
<!-- Generator: Adobe Illustrator 23.0.2, SVG Export Plug-In . SVG Version: 6.00 Build 0)  -->
<svg version="1.1" id="Layer_1" xmlns="http://www.w3.org/2000/svg" xmlns:xlink="http://www.w3.org/1999/xlink" x="0px" y="0px"
	 viewBox="0 0 98.8 95.9" style="enable-background:new 0 0 98.8 95.9;" xml:space="preserve">
<style type="text/css">
	.st0{fill:#1995AD;}
	.st1{fill:#54565B;}
	.st2{fill:#54565B;stroke:#DDDEDE;stroke-width:0.2572;stroke-miterlimit:10;}
	.st3{font-family:'SukhumvitSet-Bold';}
	.st4{font-size:30.8681px;}
	.st5{fill:none;stroke:#DDDEDE;stroke-width:0.2572;stroke-miterlimit:10;}
</style>
<g>
	<g>
		<g>
			<path class="st0" d="M42.1,95.9c-0.6,0-1.2-0.3-1.5-0.9L0.2,18.1c-0.2-0.4-0.3-0.9-0.1-1.3c0.1-0.4,0.4-0.8,0.8-1L22.6,4.4
				c0.4-0.2,0.8-0.2,1.3-0.1c0.4,0.1,0.8,0.4,1,0.8l40.4,77c0.2,0.4,0.3,0.9,0.1,1.3c-0.1,0.4-0.4,0.8-0.8,1L42.9,95.7
				C42.7,95.9,42.4,95.9,42.1,95.9z M1.9,17.3L42.2,94l21.4-11.2L23.3,6.1L1.9,17.3z M63.6,83L63.6,83L63.6,83z"/>
		</g>
		<g>
			<path class="st0" d="M62.7,79.4c-0.1,0-0.2,0-0.3,0c-0.4-0.1-0.8-0.5-0.8-1V28.9L75.2,5.8c0.5-0.8,1.5-1.1,2.4-0.6l20.3,11.6
				c0.4,0.2,0.7,0.6,0.8,1c0.1,0.4,0.1,0.9-0.2,1.3l-35,59.8C63.4,79.2,63,79.4,62.7,79.4z M62,77.9L62,77.9L62,77.9z M63.5,29.4v46
				l33.4-57.1L76.7,6.8L63.5,29.4z"/>
		</g>
		<g>
			<path class="st0" d="M62.4,79.3c-0.5,0-0.9-0.3-1.1-0.7L36.8,31.8l-0.3-30c0-0.5,0.2-1,0.5-1.3C37.4,0.1,37.8,0,38.3,0l23.4,0.5
				c0.9,0,1.7,0.8,1.7,1.7L63.7,78c0,0.6-0.4,1.1-0.9,1.2C62.7,79.3,62.6,79.3,62.4,79.3z M38.7,31.3l23.2,44.3L61.6,2.3L38.4,1.7
				L38.7,31.3z"/>
		</g>
		<g>
			
				<rect x="80.5" y="9.1" transform="matrix(0.5214 -0.8533 0.8533 0.5214 20.4095 79.8764)" class="st0" width="1.8" height="25.3"/>
		</g>
		<g>
			
				<rect x="74.6" y="19.7" transform="matrix(0.5149 -0.8573 0.8573 0.5149 8.8896 80.3781)" class="st0" width="1.8" height="25.2"/>
		</g>
		<g>
			<path class="st1" d="M80,49.7"/>
		</g>
		<g>
			
				<rect x="70.6" y="35" transform="matrix(0.4997 -0.8662 0.8662 0.4997 -3.0084 84.3325)" class="st0" width="1.8" height="19.6"/>
		</g>
		<g>
			
				<rect x="67.2" y="51.9" transform="matrix(0.4915 -0.8709 0.8709 0.4915 -15.8864 88.8333)" class="st0" width="1.8" height="12.3"/>
		</g>
		<g>
			
				<rect x="64.1" y="68.2" transform="matrix(0.5169 -0.856 0.856 0.5169 -29.1214 89.8344)" class="st0" width="1.8" height="5.1"/>
		</g>
		<g>
			<rect x="36.9" y="12.9" class="st0" width="25.8" height="1.8"/>
		</g>
		<g>
			
				<rect x="49.2" y="13.6" transform="matrix(2.038036e-02 -0.9998 0.9998 2.038036e-02 22.9491 75.7438)" class="st0" width="1.8" height="25.2"/>
		</g>
		<g>
			
				<rect x="51.5" y="29" transform="matrix(2.653060e-02 -0.9996 0.9996 2.653060e-02 11.3929 90.9138)" class="st0" width="1.8" height="21.2"/>
		</g>
		<g>
			
				<rect x="54.6" y="43.6" transform="matrix(4.876062e-02 -0.9988 0.9988 4.876062e-02 1.6839 104.1226)" class="st0" width="1.8" height="15.2"/>
		</g>
		<g>
			
				<rect x="58.1" y="59.7" transform="matrix(7.575928e-02 -0.9971 0.9971 7.575928e-02 -9.3588 118.107)" class="st0" width="1.8" height="8.8"/>
		</g>
		<g>
			
				<rect x="28.4" y="65.7" transform="matrix(0.8854 -0.4649 0.4649 0.8854 -26.208 26.8882)" class="st0" width="26" height="1.8"/>
		</g>
		<g>
			
				<rect x="22.6" y="54.5" transform="matrix(0.889 -0.4578 0.4578 0.889 -21.3871 22.5313)" class="st0" width="26.4" height="1.8"/>
		</g>
		<g>
			
				<rect x="16.6" y="43.2" transform="matrix(0.8991 -0.4377 0.4377 0.8991 -16.306 17.4526)" class="st0" width="26.2" height="1.8"/>
		</g>
		<g>
			<rect x="10.6" y="32" transform="matrix(0.8855 -0.4646 0.4646 0.8855 -12.5668 14.7325)" class="st0" width="26" height="1.8"/>
		</g>
		<g>
			<rect x="4.9" y="21.2" transform="matrix(0.8787 -0.4773 0.4773 0.8787 -8.3627 11.2319)" class="st0" width="26" height="1.8"/>
		</g>
		<g>
			<path class="st0" d="M47.4,83.1c-0.5,0-0.9-0.1-1.4-0.2c-1.2-0.4-2.2-1.2-2.8-2.3c-0.6-1.1-0.7-2.4-0.3-3.6
				c0.4-1.2,1.2-2.2,2.3-2.8c1.1-0.6,2.4-0.7,3.6-0.3c1.2,0.4,2.2,1.2,2.8,2.3c0.6,1.1,0.7,2.4,0.3,3.6c-0.4,1.2-1.2,2.2-2.3,2.8
				C48.9,82.9,48.2,83.1,47.4,83.1z M47.4,75.5c-0.5,0-0.9,0.1-1.3,0.3c-0.7,0.4-1.2,1-1.4,1.7c-0.2,0.7-0.2,1.5,0.2,2.2
				c0.4,0.7,1,1.2,1.7,1.4c0.7,0.2,1.5,0.2,2.2-0.2c0.7-0.4,1.2-1,1.4-1.7c0.2-0.7,0.2-1.5-0.2-2.2c-0.4-0.7-1-1.2-1.7-1.4
				C48,75.5,47.7,75.5,47.4,75.5z"/>
		</g>
	</g>
	<g>
		<g>
			<g>
				<path class="st2" d="M90.9,44c1.2,0.2,1.9,0.2,2.9,0.2c1.7,0,1.7,0,1.6,1.6c0,0.7,0,1.4,0,2.1c0,1.5,0,1.5-1.5,1.5
					c-1,0-1.9,0.1-3,0.2c-1.3,0.2-2.5,0.3-3.8,0.7c-2.5,0.9-4.1,2.7-4.8,5.2c-0.5,1.8-0.4,3.6,0,5.3c0.7,3.6,2.3,7.1,2.8,10.7
					s-1.2,6.8-3.8,9.4c-0.9,0.9-2,1.4-3.2,1.8c-3.3,1-6.7,1.2-10.1,1.1c-1.3,0-2.6,0-3.8,0c-0.9,0-1.2-0.4-1.2-1.2
					c0-1.1,0-2.1,0-3.2c0-0.9,0.4-1.3,1.3-1.2c1.8,0,3.6,0,5.4,0c1.3,0,2.6-0.2,3.9-0.5c2.7-0.6,4.4-3.5,4-6.2c-0.5-3-1.2-6-1.8-9
					c-0.3-1.6-0.6-3.2-0.5-4.8c0.1-2.7,1.3-4.8,1.3-4.8s0.2-0.4,0.4-0.7c1.5-2.1,3.3-3.7,5.5-4.9c0.9-0.5,0.3-0.8-0.1-1.1
					c-1.4-0.9-2.8-1.8-4-3.1c-2.4-2.7-3.5-5.7-3-9.3c0.5-3.4,1.3-6.6,1.9-9.9c0.2-1.2,0.5-2.4,0.3-3.7c-0.4-2.8-2.5-4.4-5.8-4.7
					c-2.5-0.2-5-0.2-7.4-0.2c-1,0-1.5-0.3-1.4-1.4c0-1,0-2,0-2.9c0-0.8,0.3-1.2,1.1-1.2c3.8,0.1,7.6-0.1,11.4,0.4
					c7.5,0.9,10,7.2,8.9,12.9c-0.7,3.9-1.9,7.7-2.3,11.6c-0.4,4.4,2,8.1,6.7,8.9C89.5,43.8,90.2,43.9,90.9,44z"/>
			</g>
			<g>
				<path class="st2" d="M9.9,44c1.2-0.2,2.4-0.3,3.5-0.6c3.1-1,4.7-3.2,5.3-6.3c0.4-2.1-0.2-4-0.6-6c-0.6-2.7-1.2-5.4-1.7-8.2
					c-0.7-3.8,0.3-7.2,2.9-10c1.4-1.5,3.4-2,5.4-2.4C28.8,9.7,32.9,10,37,10c0.7,0,1,0.3,1,1c0,1.1,0,2.2,0,3.3
					c0,0.9-0.4,1.2-1.2,1.2c-1.7,0-3.3,0-5,0c-1.5,0-3,0.2-4.5,0.6c-3,0.9-4.4,3.1-4,6.2c0.3,2.3,0.9,4.6,1.3,6.8
					c0.4,2,0.9,4.1,1,6.1c0.2,4.3-1.8,7.7-5.4,10c-2.6,1.7-2.6,1.6,0,3.4c3.9,2.7,6,6.4,5.3,11.4c-0.5,3.3-1.3,6.5-1.9,9.7
					c-0.2,1.1-0.4,2.3-0.3,3.5c0.1,2.7,1.9,4.4,4.9,5c2,0.4,4,0.2,6.1,0.3c3.6,0,3.6,0,3.6,3.7c0,0.3,0,0.7,0,1
					c0,0.6-0.3,0.9-0.9,0.9c-4.5,0-9.1,0.2-13.6-0.9c-4.9-1.2-7-5.7-7.2-9.6c-0.1-1.9,0.3-3.8,0.8-5.7c0.7-3,1.5-5.9,1.8-9
					c0.4-4.3-2-8.3-6.9-9c-0.6-0.1-1.3-0.2-1.9-0.2c-1.2-0.1-2.2-0.2-3.3-0.2c-0.9,0-1.2-0.4-1.2-1.2c0-0.9,0-1.9,0-2.8
					s0.3-1.2,1.2-1.2C7.7,44.1,8.4,44.1,9.9,44z"/>
			</g>
		</g>
	</g>
	<text transform="matrix(1 0 0 1 22.7516 57.6438)" class="st1 st3 st4">CSS</text>
	<text transform="matrix(1 0 0 1 22.7516 57.6438)" class="st5 st3 st4">CSS</text>
</g>
</svg>
