<?xml version="1.0" encoding="utf-8"?>
<!-- Generator: Adobe Illustrator 23.0.2, SVG Export Plug-In . SVG Version: 6.00 Build 0)  -->
<svg version="1.1" id="Layer_1" xmlns="http://www.w3.org/2000/svg" xmlns:xlink="http://www.w3.org/1999/xlink" x="0px" y="0px"
	 viewBox="0 0 67.4 98" style="enable-background:new 0 0 67.4 98;" xml:space="preserve">
<style type="text/css">
	.st0{fill:none;stroke:#1995AD;stroke-width:2.5148;stroke-miterlimit:10;}
	.st1{fill:#54565B;stroke:#DDDEDE;stroke-width:1.5;stroke-miterlimit:10;}
	.st2{fill:none;stroke:#1995AD;stroke-width:1.2574;stroke-miterlimit:10;}
	.st3{fill:none;stroke:#DDDEDE;stroke-miterlimit:10;}
	.st4{fill:#FFFFFF;stroke:#DDDEDE;stroke-miterlimit:10;}
</style>
<g>
	<path class="st0" d="M36.3,34.9l3.8-6.3c0,0,0.8-4,0.7-4.5c-0.1-0.6-3.1-5.3-2.8-5.5L56.9,8.3l-1,21.1c0,0.5-5.2,0.3-5.6,0.4
		c-0.5,0.2-3.6,2.7-3.6,2.7l-3.8,6.3L36.3,34.9z"/>
	<rect x="21.7" y="11.6" class="st0" width="7.5" height="24.1"/>
	<line class="st0" x1="25.5" y1="35.8" x2="25.5" y2="11.6"/>
	<path class="st0" d="M21.8,10.2L25,1.7c0.2-0.5,0.8-0.5,1,0l3.3,8.5c0.2,0.4-0.1,0.9-0.5,0.9h-6.4C21.9,11.1,21.6,10.6,21.8,10.2z"
		/>
	<line class="st0" x1="37.9" y1="32.4" x2="44.5" y2="36.3"/>
	<line class="st0" x1="39.9" y1="29" x2="46.4" y2="33.1"/>
	<path class="st0" d="M49,21.4c-0.8,1.3,7.8-13,7.8-13"/>
	<path class="st0" d="M3.5,36.9v-34C3.5,2.4,3.9,2,4.3,2h8.2c0.5,0,0.8,0.4,0.8,0.9v33.7L3.5,36.9z"/>
	<path class="st0" d="M7.2,13.1c-1.3,0,6.2,0,6.2,0"/>
	<path class="st0" d="M7.2,21.8c-1,0,6.2-0.1,6.2-0.1"/>
	<path class="st0" d="M7.5,30.7c-2.1,0,5.9,0,5.9,0"/>
	<path class="st1" d="M47.9,96.2V83.5c0-0.4,0.3-0.8,0.7-0.8l10.2-1.1c0.5-0.1,1-0.3,1.4-0.6c2.2-1.8,6.4-6.3,6.4-20.6
		c-0.3-9.2-4.5-14.9-6.3-16.9c-0.4-0.5-1.1-0.8-1.7-0.8h-9.8c-0.5,0-0.9-0.4-0.9-0.9v-5.2c0-0.5-0.4-0.9-0.9-0.9H1.8
		c-0.5,0-1,0.4-1,1l0.1,59.6c0,0.5,0.4,1,1,1l45-0.1C47.5,97.3,47.9,96.8,47.9,96.2z"/>
	<path class="st2" d="M62.2,50.7"/>
	<path class="st3" d="M9.3,42.9c0-0.6,0,0,0,7.8"/>
	<path class="st3" d="M47.9,46.8c0-1.8,0,2.6,0,3.1c0,0.8,0,32.5,0,26.5"/>
	<path class="st4" d="M56.8,51.7l1.4,19.6c0.1,0.9-0.6,1.7-1.5,1.7H48V50l7.8,0.7C56.3,50.7,56.7,51.1,56.8,51.7z"/>
	<path class="st3" d="M20.2,50.3"/>
	<path class="st3" d="M9.3,49.9c0,0,0,1.3,0-2.1"/>
	<path class="st3" d="M9.2,57.4c0-1.9,0-0.1,0,24.9"/>
	<path class="st3" d="M9.2,86.3c0,0,0,4.2,0-6.6"/>
</g>
</svg>
