<?xml version="1.0" encoding="utf-8"?>
<!-- Generator: Adobe Illustrator 23.0.2, SVG Export Plug-In . SVG Version: 6.00 Build 0)  -->
<svg version="1.1" id="Layer_1" xmlns="http://www.w3.org/2000/svg" xmlns:xlink="http://www.w3.org/1999/xlink" x="0px" y="0px"
	 viewBox="0 0 137 97.8" style="enable-background:new 0 0 137 97.8;" xml:space="preserve">
<style type="text/css">
	.st0{fill:#54565B;}
	.st1{fill:none;stroke:#DDDEDE;stroke-width:2.8366;stroke-miterlimit:10;}
	.st2{fill:#1995AD;}
	.st3{font-family:'ChalkboardSE-Regular';}
	.st4{font-size:34.8626px;}
	.st5{fill:none;stroke:#DDDEDE;stroke-width:0.4978;stroke-miterlimit:10;}
	.st6{font-size:42.568px;}
	.st7{fill:none;stroke:#DDDEDE;stroke-width:0.4656;stroke-miterlimit:10;}
	.st8{fill:#54565B;stroke:#DDDEDE;stroke-width:0.7164;stroke-miterlimit:10;}
	.st9{fill:none;stroke:#DDDEDE;stroke-width:0.2546;stroke-miterlimit:10;}
</style>
<g id="Layer_3">
</g>
<g>
	<g>
		<path class="st0" d="M16.2,1.4c-2.4,0-4.3,1.9-4.3,4.3v71.6c0,2.4,1.9,4.3,4.3,4.3h104.6c2.4,0,4.3-1.9,4.3-4.3V5.7
			c0-2.4-1.9-4.3-4.3-4.3H16.2z"/>
		<path class="st1" d="M16.2,1.4c-2.4,0-4.3,1.9-4.3,4.3v71.6c0,2.4,1.9,4.3,4.3,4.3h104.6c2.4,0,4.3-1.9,4.3-4.3V5.7
			c0-2.4-1.9-4.3-4.3-4.3H16.2z"/>
	</g>
	<text transform="matrix(1 0 0 1 42.7803 49.4132)" class="st2 st3 st4">&lt;</text>
	<text transform="matrix(1 0 0 1 42.7803 49.4132)" class="st5 st3 st4">&lt;</text>
	<text transform="matrix(1 0 0 1 56.8067 55.9102)" class="st2 st3 st6">/</text>
	<text transform="matrix(1 0 0 1 56.8067 55.9102)" class="st7 st3 st6">/</text>
	<text transform="matrix(1 0 0 1 79.0645 49.1182)" class="st2 st3 st4">&gt;</text>
	<text transform="matrix(1 0 0 1 79.0645 49.1182)" class="st5 st3 st4">&gt;</text>
	<g>
		<path class="st8" d="M0.5,88.1l0,6.5l8.6,2.9H128l8.6-2.8l0-6.6H74v2.2H62.4v-2.2L0.5,88.1L0.5,88.1z"/>
		<line class="st9" x1="0.5" y1="93.8" x2="136.6" y2="93.8"/>
	</g>
</g>
</svg>
